{"title":"Identity.Thief.2013.UNRATED.HDRip.XVID.AC3.HQ.Hive-CM8","uid":8497627,"size":1729017296,"categoryP":"video","categoryS":"movies","magnet":"?xt=urn:btih:0e84e7af022d5d8f32d1240daf52adb6da4efe3f&amp;dn=Identity.Thief.2013.UNRATED.HDRip.XVID.AC3.HQ.Hive-CM8&amp;tr=udp%3A%2F%2Ftracker.openbittorrent.com%3A80&amp;tr=udp%3A%2F%2Fopen.demonii.com%3A1337&amp;tr=udp%3A%2F%2Ftracker.coppersurfer.tk%3A6969&amp;tr=udp%3A%2F%2Fexodus.desync.com%3A6969","seeders":1,"leechers":2,"uploader":"R0thschild","files":5,"time":1369179206,"description":"\n              ***********************************************\n\n                PublicHash - Largest Bittorrent Community\n      \n                         &lt;a href=&quot; http://publichash.com/&quot; rel=&quot;nofollow&quot; target=&quot;_NEW&quot;&gt; http://publichash.com/&lt;/a&gt;\n    \n              ***********************************************\n\nIdentity.Thief.2013.UNRATED.HDRip.XVID.AC3.HQ.Hive-CM8\n\nSource: 1080p WEB-DL - thx\nVideo: 720x304 @bitrate 1500 2pass\nAudio: English AC3 5.1 @384\nSubs: Yes, English in srt/subs\nSample: Yes, included\nIMDb: http://www.imdb.com/title/tt2024432/\n\nGeneral\nComplete name: Identity.Thief.2013.UNRATED.HDRip.XVID.AC3.HQ.Hive-CM8.avi\nFormat: AVI\nFormat/Info: Audio Video Interleave\nFile size: 1.59 GiB\nDuration: 2h 0mn\nOverall bit rate: 1 893 Kbps\nWriting application: Nandub v1.0rc2\nWriting library: Nandub build 1853/release\n\nVideo\nID: 0\nFormat: MPEG-4 Visual\nFormat profile: Advanced Simple@L5\nFormat settings, BVOP: 2\nFormat settings, QPel: Yes\nFormat settings, GMC: No warppoints\nFormat settings, Matrix: Default (H.263)\nMuxing mode: Packed bitstream\nCodec ID: XVID\nCodec ID/Hint: XviD\nDuration: 2h 0mn\nBit rate: 1 500 Kbps\nWidth: 720 pixels\nHeight: 304 pixels\nDisplay aspect ratio: 2.35:1\nFrame rate: 23.976 fps\nColor space: YUV\nChroma subsampling: 4:2:0\nBit depth: 8 bits\nScan type: Progressive\nCompression mode: Lossy\nBits/(Pixel*Frame): 0.286\nStream size: 1.26 GiB (79%)\nWriting library: XviD 1.2.1 (UTC 2008-12-04)\n\nAudio\nID: 1\nFormat: AC-3\nFormat/Info: Audio Coding 3\nMode extension: CM (complete main)\nFormat settings, Endianness: Big\nCodec ID: 2000\nDuration: 2h 0mn\nBit rate mode: Constant\nBit rate: 384 Kbps\nChannel(s): 6 channels\nChannel positions: Front: L C R, Side: L R, LFE\nSampling rate: 48.0 KHz\nBit depth: 16 bits\nCompression mode: Lossy\nStream size: 331 MiB (20%)\nAlignment: Split accross interleaves\nInterleave, duration: 42 ms (1.00 video frame)\nInterleave, preload duration: 500 ms","torrent":{"xt":"urn:btih:0e84e7af022d5d8f32d1240daf52adb6da4efe3f","amp;dn":"Identity.Thief.2013.UNRATED.HDRip.XVID.AC3.HQ.Hive-CM8","amp;tr":["udp%3A%2F%2Ftracker.openbittorrent.com%3A80","udp%3A%2F%2Fopen.demonii.com%3A1337","udp%3A%2F%2Ftracker.coppersurfer.tk%3A6969","udp%3A%2F%2Fexodus.desync.com%3A6969"],"infoHash":"0e84e7af022d5d8f32d1240daf52adb6da4efe3f","infoHashBuffer":{"type":"Buffer","data":[14,132,231,175,2,45,93,143,50,209,36,13,175,82,173,182,218,78,254,63]},"announce":[],"urlList":[]}}